# xmcd
#
# Track frame offsets: 
#        150
#        13005
#        30687
#        48170
#        67404
#        84474
#        101768
#        117626
#        129934
#        144140
#        160549
#        177432
#        195074
#
# Disc length: 2824 seconds
#
# Revision: 0
# Processed by: cddbd v1.5.2PL0 Copyright (c) Steve Scherf et al.
# Submitted via: ExactAudioCopyFreeDBPlugin 1.0
#
DISCID=a50b060d
DTITLE=Dan Penn - Something About the Night
DYEAR=2016
DGENRE=Soul
TTITLE0=Something About the Night
TTITLE1=My Heart's in Memphis
TTITLE2=It's Your Dream
TTITLE3=Mahogany Sunset
TTITLE4=Jewel of My Heart
TTITLE5=Angels Along the Way
TTITLE6=Let's Boogie Tonight
TTITLE7=Time to Get Over You
TTITLE8=Ghost of a Chance
TTITLE9=I Hate to See You Go
TTITLE10=Whatever Gets You Through the Night
TTITLE11=Headin' Home
TTITLE12=Nothing Can Keep You Here
EXTD=
EXTT0=
EXTT1=
EXTT2=
EXTT3=
EXTT4=
EXTT5=
EXTT6=
EXTT7=
EXTT8=
EXTT9=
EXTT10=
EXTT11=
EXTT12=
PLAYORDER=
